<mxfile host="app.diagrams.net" agent="Mozilla/5.0 (Windows NT 10.0; Win64; x64) AppleWebKit/537.36 (KHTML, like Gecko) Chrome/128.0.0.0 Safari/537.36" version="24.7.13">
  <diagram name="PÃ¡gina-1" id="ixoh7e-iqgpoGNDWC_ut">
    <mxGraphModel dx="2261" dy="780" grid="1" gridSize="10" guides="1" tooltips="1" connect="1" arrows="1" fold="1" page="1" pageScale="1" pageWidth="827" pageHeight="1169" math="0" shadow="0">
      <root>
        <mxCell id="0" />
        <mxCell id="1" parent="0" />
        <mxCell id="WV2hEy02lGxAEzvTqfHQ-1" value="INSTRUCTOR" style="whiteSpace=wrap;html=1;align=center;" vertex="1" parent="1">
          <mxGeometry x="-160" y="290" width="100" height="40" as="geometry" />
        </mxCell>
        <mxCell id="WV2hEy02lGxAEzvTqfHQ-2" value="CURSO" style="whiteSpace=wrap;html=1;align=center;" vertex="1" parent="1">
          <mxGeometry x="330" y="290" width="100" height="40" as="geometry" />
        </mxCell>
        <mxCell id="WV2hEy02lGxAEzvTqfHQ-3" value="APRENDIZ" style="whiteSpace=wrap;html=1;align=center;" vertex="1" parent="1">
          <mxGeometry x="770" y="290" width="100" height="40" as="geometry" />
        </mxCell>
        <mxCell id="WV2hEy02lGxAEzvTqfHQ-4" value="RESULTADO" style="whiteSpace=wrap;html=1;align=center;" vertex="1" parent="1">
          <mxGeometry x="330" y="560" width="100" height="40" as="geometry" />
        </mxCell>
        <mxCell id="WV2hEy02lGxAEzvTqfHQ-5" value="id instru" style="ellipse;whiteSpace=wrap;html=1;align=center;fontStyle=4;" vertex="1" parent="1">
          <mxGeometry x="-280" y="240" width="100" height="40" as="geometry" />
        </mxCell>
        <mxCell id="WV2hEy02lGxAEzvTqfHQ-6" value="id aprendiz&lt;span style=&quot;color: rgba(0, 0, 0, 0); font-family: monospace; font-size: 0px; text-align: start; text-wrap: nowrap;&quot;&gt;%3CmxGraphModel%3E%3Croot%3E%3CmxCell%20id%3D%220%22%2F%3E%3CmxCell%20id%3D%221%22%20parent%3D%220%22%2F%3E%3CmxCell%20id%3D%222%22%20value%3D%22id%20instru%22%20style%3D%22ellipse%3BwhiteSpace%3Dwrap%3Bhtml%3D1%3Balign%3Dcenter%3BfontStyle%3D4%3B%22%20vertex%3D%221%22%20parent%3D%221%22%3E%3CmxGeometry%20x%3D%22-140%22%20y%3D%22250%22%20width%3D%22100%22%20height%3D%2240%22%20as%3D%22geometry%22%2F%3E%3C%2FmxCell%3E%3C%2Froot%3E%3C%2FmxGraphModel%3E&lt;/span&gt;&lt;span style=&quot;color: rgba(0, 0, 0, 0); font-family: monospace; font-size: 0px; text-align: start; text-wrap: nowrap;&quot;&gt;%3CmxGraphModel%3E%3Croot%3E%3CmxCell%20id%3D%220%22%2F%3E%3CmxCell%20id%3D%221%22%20parent%3D%220%22%2F%3E%3CmxCell%20id%3D%222%22%20value%3D%22id%20instru%22%20style%3D%22ellipse%3BwhiteSpace%3Dwrap%3Bhtml%3D1%3Balign%3Dcenter%3BfontStyle%3D4%3B%22%20vertex%3D%221%22%20parent%3D%221%22%3E%3CmxGeometry%20x%3D%22-140%22%20y%3D%22250%22%20width%3D%22100%22%20height%3D%2240%22%20as%3D%22geometry%22%2F%3E%3C%2FmxCell%3E%3C%2Froot%3E%3C%2FmxGraphModel%3E&lt;/span&gt;" style="ellipse;whiteSpace=wrap;html=1;align=center;fontStyle=4;" vertex="1" parent="1">
          <mxGeometry x="860" y="230" width="100" height="40" as="geometry" />
        </mxCell>
        <mxCell id="WV2hEy02lGxAEzvTqfHQ-7" value="id resultado&lt;span style=&quot;color: rgba(0, 0, 0, 0); font-family: monospace; font-size: 0px; text-align: start; text-wrap: nowrap;&quot;&gt;%3CmxGraphModel%3E%3Croot%3E%3CmxCell%20id%3D%220%22%2F%3E%3CmxCell%20id%3D%221%22%20parent%3D%220%22%2F%3E%3CmxCell%20id%3D%222%22%20value%3D%22id%20instru%22%20style%3D%22ellipse%3BwhiteSpace%3Dwrap%3Bhtml%3D1%3Balign%3Dcenter%3BfontStyle%3D4%3B%22%20vertex%3D%221%22%20parent%3D%221%22%3E%3CmxGeometry%20x%3D%22-140%22%20y%3D%22250%22%20width%3D%22100%22%20height%3D%2240%22%20as%3D%22geometry%22%2F%3E%3C%2FmxCell%3E%3C%2Froot%3E%3C%2FmxGraphModel%3E&lt;/span&gt;" style="ellipse;whiteSpace=wrap;html=1;align=center;fontStyle=4;" vertex="1" parent="1">
          <mxGeometry x="210" y="640" width="100" height="40" as="geometry" />
        </mxCell>
        <mxCell id="WV2hEy02lGxAEzvTqfHQ-8" value="ficha" style="ellipse;whiteSpace=wrap;html=1;align=center;fontStyle=4;" vertex="1" parent="1">
          <mxGeometry x="190" y="190" width="100" height="40" as="geometry" />
        </mxCell>
        <mxCell id="WV2hEy02lGxAEzvTqfHQ-9" value="" style="endArrow=none;html=1;rounded=0;exitX=1;exitY=0.5;exitDx=0;exitDy=0;entryX=0;entryY=0.5;entryDx=0;entryDy=0;" edge="1" parent="1" source="WV2hEy02lGxAEzvTqfHQ-1" target="WV2hEy02lGxAEzvTqfHQ-10">
          <mxGeometry relative="1" as="geometry">
            <mxPoint y="310" as="sourcePoint" />
            <mxPoint x="40" y="330" as="targetPoint" />
          </mxGeometry>
        </mxCell>
        <mxCell id="WV2hEy02lGxAEzvTqfHQ-10" value="INSTRUCTOR" style="shape=rhombus;perimeter=rhombusPerimeter;whiteSpace=wrap;html=1;align=center;" vertex="1" parent="1">
          <mxGeometry x="60" y="280" width="120" height="60" as="geometry" />
        </mxCell>
        <mxCell id="WV2hEy02lGxAEzvTqfHQ-11" value="" style="endArrow=none;html=1;rounded=0;exitX=1;exitY=0.5;exitDx=0;exitDy=0;entryX=0;entryY=0.5;entryDx=0;entryDy=0;" edge="1" parent="1" source="WV2hEy02lGxAEzvTqfHQ-10" target="WV2hEy02lGxAEzvTqfHQ-2">
          <mxGeometry relative="1" as="geometry">
            <mxPoint x="200" y="340" as="sourcePoint" />
            <mxPoint x="320" y="360" as="targetPoint" />
          </mxGeometry>
        </mxCell>
        <mxCell id="WV2hEy02lGxAEzvTqfHQ-12" value="" style="endArrow=none;html=1;rounded=0;exitX=1;exitY=0.5;exitDx=0;exitDy=0;entryX=0;entryY=0.5;entryDx=0;entryDy=0;" edge="1" parent="1" target="WV2hEy02lGxAEzvTqfHQ-13" source="WV2hEy02lGxAEzvTqfHQ-2">
          <mxGeometry relative="1" as="geometry">
            <mxPoint x="525" y="430" as="sourcePoint" />
            <mxPoint x="625" y="450" as="targetPoint" />
          </mxGeometry>
        </mxCell>
        <mxCell id="WV2hEy02lGxAEzvTqfHQ-13" value="APRENDIZ" style="shape=rhombus;perimeter=rhombusPerimeter;whiteSpace=wrap;html=1;align=center;" vertex="1" parent="1">
          <mxGeometry x="540" y="280" width="120" height="60" as="geometry" />
        </mxCell>
        <mxCell id="WV2hEy02lGxAEzvTqfHQ-14" value="" style="endArrow=none;html=1;rounded=0;exitX=1;exitY=0.5;exitDx=0;exitDy=0;entryX=0;entryY=0.5;entryDx=0;entryDy=0;" edge="1" parent="1" source="WV2hEy02lGxAEzvTqfHQ-13" target="WV2hEy02lGxAEzvTqfHQ-3">
          <mxGeometry relative="1" as="geometry">
            <mxPoint x="785" y="460" as="sourcePoint" />
            <mxPoint x="915" y="430" as="targetPoint" />
          </mxGeometry>
        </mxCell>
        <mxCell id="WV2hEy02lGxAEzvTqfHQ-18" value="" style="endArrow=none;html=1;rounded=0;exitX=1;exitY=1;exitDx=0;exitDy=0;entryX=0.25;entryY=0;entryDx=0;entryDy=0;" edge="1" parent="1" source="WV2hEy02lGxAEzvTqfHQ-8" target="WV2hEy02lGxAEzvTqfHQ-2">
          <mxGeometry relative="1" as="geometry">
            <mxPoint x="410" y="200" as="sourcePoint" />
            <mxPoint x="410" y="320" as="targetPoint" />
          </mxGeometry>
        </mxCell>
        <mxCell id="WV2hEy02lGxAEzvTqfHQ-19" value="" style="endArrow=none;html=1;rounded=0;exitX=0.5;exitY=1;exitDx=0;exitDy=0;entryX=1;entryY=0.5;entryDx=0;entryDy=0;" edge="1" parent="1" source="WV2hEy02lGxAEzvTqfHQ-6" target="WV2hEy02lGxAEzvTqfHQ-3">
          <mxGeometry relative="1" as="geometry">
            <mxPoint x="920" y="280" as="sourcePoint" />
            <mxPoint x="920" y="390" as="targetPoint" />
          </mxGeometry>
        </mxCell>
        <mxCell id="WV2hEy02lGxAEzvTqfHQ-20" value="" style="endArrow=none;html=1;rounded=0;exitX=0.74;exitY=0.925;exitDx=0;exitDy=0;exitPerimeter=0;entryX=0;entryY=0;entryDx=0;entryDy=0;" edge="1" parent="1" source="WV2hEy02lGxAEzvTqfHQ-5" target="WV2hEy02lGxAEzvTqfHQ-1">
          <mxGeometry relative="1" as="geometry">
            <mxPoint x="-200" y="400" as="sourcePoint" />
            <mxPoint x="-40" y="400" as="targetPoint" />
          </mxGeometry>
        </mxCell>
        <mxCell id="WV2hEy02lGxAEzvTqfHQ-21" value="" style="endArrow=none;html=1;rounded=0;exitX=0;exitY=1;exitDx=0;exitDy=0;entryX=1;entryY=0;entryDx=0;entryDy=0;" edge="1" parent="1" source="WV2hEy02lGxAEzvTqfHQ-4" target="WV2hEy02lGxAEzvTqfHQ-7">
          <mxGeometry relative="1" as="geometry">
            <mxPoint x="330" y="420" as="sourcePoint" />
            <mxPoint x="490" y="420" as="targetPoint" />
          </mxGeometry>
        </mxCell>
        <mxCell id="WV2hEy02lGxAEzvTqfHQ-25" value="1" style="text;strokeColor=none;align=center;fillColor=none;html=1;verticalAlign=middle;whiteSpace=wrap;rounded=0;" vertex="1" parent="1">
          <mxGeometry x="-76" y="284" width="60" height="30" as="geometry" />
        </mxCell>
        <mxCell id="WV2hEy02lGxAEzvTqfHQ-26" value="M" style="text;strokeColor=none;align=center;fillColor=none;html=1;verticalAlign=middle;whiteSpace=wrap;rounded=0;" vertex="1" parent="1">
          <mxGeometry x="290" y="284" width="60" height="30" as="geometry" />
        </mxCell>
        <mxCell id="WV2hEy02lGxAEzvTqfHQ-27" value="1" style="text;strokeColor=none;align=center;fillColor=none;html=1;verticalAlign=middle;whiteSpace=wrap;rounded=0;" vertex="1" parent="1">
          <mxGeometry x="290" y="310" width="60" height="30" as="geometry" />
        </mxCell>
        <mxCell id="WV2hEy02lGxAEzvTqfHQ-28" value="N" style="text;strokeColor=none;align=center;fillColor=none;html=1;verticalAlign=middle;whiteSpace=wrap;rounded=0;" vertex="1" parent="1">
          <mxGeometry x="-76" y="310" width="60" height="30" as="geometry" />
        </mxCell>
        <mxCell id="WV2hEy02lGxAEzvTqfHQ-29" value="1" style="text;strokeColor=none;align=center;fillColor=none;html=1;verticalAlign=middle;whiteSpace=wrap;rounded=0;" vertex="1" parent="1">
          <mxGeometry x="730" y="284" width="60" height="30" as="geometry" />
        </mxCell>
        <mxCell id="WV2hEy02lGxAEzvTqfHQ-30" value="M" style="text;strokeColor=none;align=center;fillColor=none;html=1;verticalAlign=middle;whiteSpace=wrap;rounded=0;" vertex="1" parent="1">
          <mxGeometry x="413.5" y="284" width="60" height="30" as="geometry" />
        </mxCell>
        <mxCell id="WV2hEy02lGxAEzvTqfHQ-31" value="1" style="text;strokeColor=none;align=center;fillColor=none;html=1;verticalAlign=middle;whiteSpace=wrap;rounded=0;" vertex="1" parent="1">
          <mxGeometry x="413.5" y="310" width="60" height="30" as="geometry" />
        </mxCell>
        <mxCell id="WV2hEy02lGxAEzvTqfHQ-32" value="N" style="text;strokeColor=none;align=center;fillColor=none;html=1;verticalAlign=middle;whiteSpace=wrap;rounded=0;" vertex="1" parent="1">
          <mxGeometry x="730" y="310" width="60" height="30" as="geometry" />
        </mxCell>
        <mxCell id="WV2hEy02lGxAEzvTqfHQ-33" value="1" style="text;strokeColor=none;align=center;fillColor=none;html=1;verticalAlign=middle;whiteSpace=wrap;rounded=0;" vertex="1" parent="1">
          <mxGeometry x="360" y="330" width="60" height="30" as="geometry" />
        </mxCell>
        <mxCell id="WV2hEy02lGxAEzvTqfHQ-34" value="M" style="text;strokeColor=none;align=center;fillColor=none;html=1;verticalAlign=middle;whiteSpace=wrap;rounded=0;" vertex="1" parent="1">
          <mxGeometry x="360" y="530" width="60" height="30" as="geometry" />
        </mxCell>
        <mxCell id="WV2hEy02lGxAEzvTqfHQ-35" value="1" style="text;strokeColor=none;align=center;fillColor=none;html=1;verticalAlign=middle;whiteSpace=wrap;rounded=0;" vertex="1" parent="1">
          <mxGeometry x="340" y="530" width="60" height="30" as="geometry" />
        </mxCell>
        <mxCell id="WV2hEy02lGxAEzvTqfHQ-36" value="N" style="text;strokeColor=none;align=center;fillColor=none;html=1;verticalAlign=middle;whiteSpace=wrap;rounded=0;" vertex="1" parent="1">
          <mxGeometry x="330" y="330" width="60" height="30" as="geometry" />
        </mxCell>
        <mxCell id="WV2hEy02lGxAEzvTqfHQ-42" value="nombre" style="ellipse;whiteSpace=wrap;html=1;align=center;" vertex="1" parent="1">
          <mxGeometry x="-290" y="300" width="100" height="40" as="geometry" />
        </mxCell>
        <mxCell id="WV2hEy02lGxAEzvTqfHQ-44" value="programa" style="ellipse;whiteSpace=wrap;html=1;align=center;" vertex="1" parent="1">
          <mxGeometry x="270" y="160" width="100" height="40" as="geometry" />
        </mxCell>
        <mxCell id="WV2hEy02lGxAEzvTqfHQ-45" value="trimestre" style="ellipse;whiteSpace=wrap;html=1;align=center;" vertex="1" parent="1">
          <mxGeometry x="380" y="160" width="100" height="40" as="geometry" />
        </mxCell>
        <mxCell id="WV2hEy02lGxAEzvTqfHQ-46" value="" style="endArrow=none;html=1;rounded=0;exitX=0.5;exitY=1;exitDx=0;exitDy=0;entryX=0.5;entryY=0;entryDx=0;entryDy=0;" edge="1" parent="1" source="WV2hEy02lGxAEzvTqfHQ-44" target="WV2hEy02lGxAEzvTqfHQ-2">
          <mxGeometry relative="1" as="geometry">
            <mxPoint x="315" y="214" as="sourcePoint" />
            <mxPoint x="365" y="300" as="targetPoint" />
          </mxGeometry>
        </mxCell>
        <mxCell id="WV2hEy02lGxAEzvTqfHQ-47" value="" style="endArrow=none;html=1;rounded=0;exitX=0;exitY=1;exitDx=0;exitDy=0;entryX=0.75;entryY=0;entryDx=0;entryDy=0;" edge="1" parent="1" source="WV2hEy02lGxAEzvTqfHQ-45" target="WV2hEy02lGxAEzvTqfHQ-2">
          <mxGeometry relative="1" as="geometry">
            <mxPoint x="390" y="200" as="sourcePoint" />
            <mxPoint x="390" y="300" as="targetPoint" />
          </mxGeometry>
        </mxCell>
        <mxCell id="WV2hEy02lGxAEzvTqfHQ-48" value="nombre" style="ellipse;whiteSpace=wrap;html=1;align=center;" vertex="1" parent="1">
          <mxGeometry x="900" y="360" width="100" height="40" as="geometry" />
        </mxCell>
        <mxCell id="WV2hEy02lGxAEzvTqfHQ-49" value="" style="endArrow=none;html=1;rounded=0;exitX=0;exitY=0;exitDx=0;exitDy=0;entryX=1;entryY=0.75;entryDx=0;entryDy=0;" edge="1" parent="1" source="WV2hEy02lGxAEzvTqfHQ-48" target="WV2hEy02lGxAEzvTqfHQ-3">
          <mxGeometry relative="1" as="geometry">
            <mxPoint x="920" y="280" as="sourcePoint" />
            <mxPoint x="880" y="320" as="targetPoint" />
          </mxGeometry>
        </mxCell>
        <mxCell id="WV2hEy02lGxAEzvTqfHQ-50" value="" style="endArrow=none;html=1;rounded=0;exitX=1;exitY=0.5;exitDx=0;exitDy=0;entryX=0;entryY=0.5;entryDx=0;entryDy=0;" edge="1" parent="1" source="WV2hEy02lGxAEzvTqfHQ-42" target="WV2hEy02lGxAEzvTqfHQ-1">
          <mxGeometry relative="1" as="geometry">
            <mxPoint x="330" y="500" as="sourcePoint" />
            <mxPoint x="490" y="500" as="targetPoint" />
          </mxGeometry>
        </mxCell>
        <mxCell id="WV2hEy02lGxAEzvTqfHQ-51" value="promedio" style="ellipse;whiteSpace=wrap;html=1;align=center;" vertex="1" parent="1">
          <mxGeometry x="450" y="620" width="100" height="40" as="geometry" />
        </mxCell>
        <mxCell id="WV2hEy02lGxAEzvTqfHQ-52" value="Relationship" style="shape=rhombus;perimeter=rhombusPerimeter;whiteSpace=wrap;html=1;align=center;" vertex="1" parent="1">
          <mxGeometry x="320" y="400" width="120" height="60" as="geometry" />
        </mxCell>
        <mxCell id="WV2hEy02lGxAEzvTqfHQ-53" value="" style="endArrow=none;html=1;rounded=0;exitX=0.5;exitY=1;exitDx=0;exitDy=0;entryX=0.5;entryY=0;entryDx=0;entryDy=0;" edge="1" parent="1">
          <mxGeometry relative="1" as="geometry">
            <mxPoint x="379.5" y="330" as="sourcePoint" />
            <mxPoint x="379.5" y="400" as="targetPoint" />
          </mxGeometry>
        </mxCell>
        <mxCell id="WV2hEy02lGxAEzvTqfHQ-54" value="" style="endArrow=none;html=1;rounded=0;exitX=0.5;exitY=1;exitDx=0;exitDy=0;entryX=0.5;entryY=0;entryDx=0;entryDy=0;" edge="1" parent="1">
          <mxGeometry relative="1" as="geometry">
            <mxPoint x="379.5" y="460" as="sourcePoint" />
            <mxPoint x="379.5" y="560" as="targetPoint" />
          </mxGeometry>
        </mxCell>
        <mxCell id="WV2hEy02lGxAEzvTqfHQ-60" value="aprendizajes" style="ellipse;whiteSpace=wrap;html=1;align=center;" vertex="1" parent="1">
          <mxGeometry x="450" y="200" width="100" height="40" as="geometry" />
        </mxCell>
        <mxCell id="WV2hEy02lGxAEzvTqfHQ-61" value="" style="endArrow=none;html=1;rounded=0;exitX=0;exitY=1;exitDx=0;exitDy=0;entryX=0;entryY=0.25;entryDx=0;entryDy=0;" edge="1" parent="1" source="WV2hEy02lGxAEzvTqfHQ-60" target="WV2hEy02lGxAEzvTqfHQ-30">
          <mxGeometry relative="1" as="geometry">
            <mxPoint x="330" y="500" as="sourcePoint" />
            <mxPoint x="490" y="500" as="targetPoint" />
          </mxGeometry>
        </mxCell>
        <mxCell id="WV2hEy02lGxAEzvTqfHQ-62" value="&lt;li data-sourcepos=&quot;21:5-21:35&quot;&gt;&lt;span&gt;ID_Resultado (Clave primaria)&lt;/span&gt;&lt;/li&gt;&lt;li data-sourcepos=&quot;22:5-22:45&quot;&gt;&lt;span&gt;Estudiante (Clave forÃ¡nea a Estudiante)&lt;/span&gt;&lt;/li&gt;&lt;li data-sourcepos=&quot;23:5-23:35&quot;&gt;&lt;span&gt;Curso (Clave forÃ¡nea a Curso)&lt;/span&gt;&lt;/li&gt;&lt;li data-sourcepos=&quot;24:5-24:31&quot;&gt;&lt;span&gt;Resultados de Aprendizaje&lt;/span&gt;&lt;/li&gt;&lt;li data-sourcepos=&quot;25:5-25:20&quot;&gt;&lt;span&gt;Nota DesempeÃ±o&lt;/span&gt;&lt;/li&gt;&lt;li data-sourcepos=&quot;26:5-26:23&quot;&gt;&lt;span&gt;Nota Conocimiento&lt;/span&gt;&lt;/li&gt;&lt;li data-sourcepos=&quot;27:5-27:19&quot;&gt;&lt;span&gt;Nota Producto&lt;/span&gt;&lt;/li&gt;&lt;li data-sourcepos=&quot;28:5-29:0&quot;&gt;&lt;span&gt;Promedio&lt;/span&gt;&lt;/li&gt;" style="text;whiteSpace=wrap;html=1;" vertex="1" parent="1">
          <mxGeometry x="740" y="600" width="260" height="140" as="geometry" />
        </mxCell>
      </root>
    </mxGraphModel>
  </diagram>
</mxfile>
